<?xml version="1.0" standalone="no"?>
<!DOCTYPE svg PUBLIC "-//W3C//DTD SVG 20010904//EN"
 "http://www.w3.org/TR/2001/REC-SVG-20010904/DTD/svg10.dtd">
<svg version="1.0" xmlns="http://www.w3.org/2000/svg"
 width="500.000000pt" height="500.000000pt" viewBox="0 0 500.000000 500.000000"
 preserveAspectRatio="xMidYMid meet">

<g transform="translate(0.000000,500.000000) scale(0.100000,-0.100000)"
fill="#000000" stroke="none">
<path d="M0 2500 l0 -2500 2500 0 2500 0 0 2500 0 2500 -2500 0 -2500 0 0
-2500z m2759 1325 c194 -46 389 -223 453 -410 45 -136 49 -366 9 -525 -30
-117 -108 -272 -182 -360 -34 -40 -69 -91 -80 -114 -36 -79 -19 -217 39 -316
14 -24 14 -24 -3 -5 -36 42 -68 128 -73 196 -7 99 10 147 88 250 85 112 133
209 167 335 22 84 26 121 27 244 1 235 -40 344 -179 487 -93 94 -180 142 -305
169 -185 40 -443 -21 -625 -146 -99 -68 -165 -188 -190 -342 -15 -94 -15 -99
5 -155 11 -31 20 -73 20 -93 0 -43 -33 -116 -93 -205 -55 -81 -52 -104 13
-120 23 -6 51 -21 61 -34 20 -25 26 -86 9 -96 -16 -10 -12 -85 6 -103 14 -13
15 -29 10 -94 l-7 -79 38 -16 c31 -13 63 -15 178 -10 264 11 379 67 457 222
27 53 31 75 14 75 -21 0 -20 17 2 29 16 10 15 10 -3 11 -33 1 -52 17 -37 32
18 18 15 25 -18 32 -44 8 -83 50 -74 79 6 20 31 57 67 98 13 15 9 17 -46 24
-87 9 -127 28 -127 59 0 13 11 38 25 54 14 17 25 33 25 36 0 4 -21 26 -47 49
-110 98 -139 133 -152 180 -15 53 -11 78 30 165 53 111 162 161 324 149 124
-10 305 -68 305 -98 0 -6 18 -31 40 -56 56 -64 57 -101 5 -151 -26 -24 -35
-41 -35 -65 0 -17 -9 -47 -20 -65 -13 -21 -18 -42 -14 -54 3 -11 0 -27 -9 -36
-8 -9 -17 -29 -21 -44 -15 -63 -184 -98 -311 -63 -35 9 -71 25 -81 36 -16 18
-18 18 -30 1 -22 -28 -16 -52 14 -63 34 -14 139 -16 220 -6 68 9 87 -5 30 -22
-32 -9 -32 -9 15 -10 56 -1 61 -15 12 -32 -19 -7 -35 -20 -35 -29 0 -11 -2
-12 -8 -3 -6 9 -24 11 -60 6 -41 -5 -58 -12 -77 -35 -14 -16 -22 -35 -18 -44
5 -12 11 -10 34 12 34 33 97 46 163 33 113 -21 115 -94 4 -114 -24 -5 -38 -13
-38 -22 0 -12 7 -14 31 -9 43 8 33 -15 -12 -27 -30 -8 -32 -10 -14 -18 19 -8
19 -8 -2 -15 -13 -3 -23 -12 -23 -19 0 -7 -16 -44 -35 -83 -84 -167 -207 -225
-500 -239 -120 -5 -134 -4 -172 15 -52 27 -71 73 -52 127 11 31 11 40 -4 68
-18 34 -25 124 -12 169 8 29 -5 39 -67 52 -29 7 -53 35 -63 76 -4 19 8 48 55
125 79 131 86 158 60 225 -57 143 12 394 144 526 77 76 227 155 359 189 112
29 295 34 396 10z m-842 -1996 c53 -26 84 -66 62 -79 -9 -6 -22 -1 -40 16 -76
73 -201 36 -224 -66 -28 -127 145 -209 229 -109 42 49 35 59 -39 59 -58 0 -65
2 -65 20 0 19 7 20 91 20 l91 0 -7 -32 c-18 -83 -68 -138 -142 -153 -46 -9
-112 12 -149 49 -84 84 -62 219 46 274 55 28 92 28 147 1z m1390 -5 c22 -14
23 -18 11 -30 -12 -12 -18 -12 -46 1 -36 18 -67 13 -82 -15 -16 -29 -2 -49 54
-77 75 -37 96 -60 96 -103 0 -46 -21 -76 -65 -90 -43 -14 -92 -1 -126 36 -20
21 -21 27 -9 34 21 13 30 12 36 -4 3 -8 19 -19 36 -25 39 -14 82 5 86 37 5 31
-12 48 -75 78 -30 14 -61 37 -69 50 -28 42 -4 107 46 127 23 10 79 0 107 -19z
m-1187 -129 l0 -145 59 0 c47 0 60 -3 63 -16 2 -9 21 32 42 92 80 223 76 214
100 214 21 0 29 -16 80 -155 31 -86 56 -160 56 -165 0 -6 -9 -10 -19 -10 -13
0 -23 11 -31 35 l-12 35 -73 0 -73 0 -12 -35 -12 -35 -104 0 -104 0 0 165 c0
158 1 165 20 165 19 0 20 -7 20 -145z m626 119 c54 -40 69 -70 69 -138 0 -54
-4 -68 -29 -100 -37 -49 -79 -66 -161 -66 l-65 0 0 166 0 166 79 -3 c61 -3 86
-9 107 -25z m194 -41 l42 -67 41 67 c32 51 47 67 64 67 13 0 23 -2 23 -5 0 -3
-25 -42 -55 -88 -55 -82 -55 -82 -55 -159 0 -71 -2 -78 -20 -78 -18 0 -20 7
-20 80 0 80 -1 82 -48 153 -69 102 -67 97 -39 97 20 0 34 -14 67 -67z m-1049
-416 c31 -24 42 -56 28 -88 -14 -35 -36 -49 -78 -49 l-31 0 0 75 0 75 33 0
c17 0 39 -6 48 -13z m87 -18 l19 -31 19 31 c10 17 24 31 32 31 8 0 4 -13 -13
-37 -16 -24 -25 -51 -25 -75 0 -21 -4 -38 -10 -38 -5 0 -10 15 -10 33 0 18
-11 48 -25 69 -27 40 -30 48 -16 48 5 0 18 -14 29 -31z m156 25 c28 -11 17
-24 -14 -17 -41 8 -41 -20 0 -44 35 -20 47 -48 30 -68 -16 -19 -64 -19 -79 -2
-15 19 -3 28 19 15 21 -13 52 -4 45 14 -3 7 -19 21 -35 30 -58 33 -28 96 34
72z m66 -59 c0 -63 1 -65 25 -65 14 0 25 -4 25 -10 0 -5 -16 -10 -35 -10 l-35
0 0 75 c0 43 4 75 10 75 6 0 10 -28 10 -65z m160 55 c0 -5 -16 -10 -35 -10
-31 0 -35 -3 -35 -25 0 -21 5 -25 30 -25 17 0 30 -4 30 -10 0 -5 -13 -10 -30
-10 -23 0 -30 -4 -30 -20 0 -16 7 -20 35 -20 19 0 35 -4 35 -10 0 -5 -20 -10
-45 -10 l-45 0 0 75 0 75 45 0 c25 0 45 -4 45 -10z m47 -16 l17 -26 23 28 c30
39 40 23 13 -21 l-22 -36 27 -34 c18 -25 22 -35 12 -35 -8 0 -22 12 -32 26
l-17 27 -23 -29 c-30 -37 -44 -25 -16 14 26 37 26 40 1 72 -22 28 -25 40 -10
40 5 0 17 -12 27 -26z m113 -49 c0 -43 -4 -75 -10 -75 -6 0 -10 32 -10 75 0
43 4 75 10 75 6 0 10 -32 10 -75z m119 1 c22 -62 22 -103 0 -63 -12 21 -65 23
-73 2 -9 -25 -28 -18 -20 8 23 74 47 128 57 124 7 -2 23 -34 36 -71z m181 64
c0 -5 -9 -10 -20 -10 -18 0 -20 -7 -20 -65 0 -37 -4 -65 -10 -65 -6 0 -10 28
-10 65 0 58 -2 65 -20 65 -11 0 -20 5 -20 10 0 6 23 10 50 10 28 0 50 -4 50
-10z m110 0 c0 -5 -16 -10 -35 -10 -31 0 -35 -3 -35 -25 0 -21 5 -25 30 -25
17 0 30 -4 30 -10 0 -5 -13 -10 -30 -10 -23 0 -30 -4 -30 -20 0 -16 7 -20 35
-20 19 0 35 -4 35 -10 0 -5 -20 -10 -45 -10 l-45 0 0 75 0 75 45 0 c25 0 45
-4 45 -10z m97 -7 c3 -8 -6 -11 -23 -10 -40 3 -40 -18 1 -41 36 -22 45 -48 23
-70 -16 -16 -63 -15 -77 1 -15 19 -3 28 19 15 18 -12 50 -5 50 11 0 5 -16 18
-35 30 -36 21 -45 47 -23 69 15 15 60 12 65 -5z m123 7 c0 -5 -9 -10 -20 -10
-18 0 -20 -7 -20 -65 0 -51 -3 -65 -15 -65 -12 0 -15 14 -15 65 0 58 -2 65
-20 65 -11 0 -20 5 -20 10 0 6 25 10 55 10 30 0 55 -4 55 -10z"/>
<path d="M2478 3553 c6 -2 18 -2 25 0 6 3 1 5 -13 5 -14 0 -19 -2 -12 -5z"/>
<path d="M2394 3531 c-23 -10 -45 -25 -50 -32 -5 -9 3 -7 20 4 15 10 44 25 64
32 21 8 30 14 22 14 -8 0 -34 -8 -56 -18z"/>
<path d="M2458 3521 c-69 -22 -112 -49 -158 -96 l-35 -36 60 35 c74 45 112 56
196 56 84 0 157 -21 242 -71 60 -36 116 -93 130 -132 5 -14 43 16 58 45 19 36
-54 124 -140 168 -98 49 -252 63 -353 31z"/>
<path d="M2395 3439 c-27 -10 -66 -32 -85 -48 l-35 -29 43 -41 c24 -23 46 -41
51 -41 4 0 13 11 19 25 27 59 145 114 251 116 l56 1 -55 18 c-74 25 -180 25
-245 -1z"/>
<path d="M2517 3376 c-66 -27 -92 -48 -113 -88 l-14 -27 72 -23 c60 -19 96
-23 203 -23 143 0 175 9 175 50 0 34 -47 84 -105 111 -67 32 -141 31 -218 0z"/>
<path d="M2255 3306 c-5 -23 -1 -46 10 -70 17 -35 67 -86 86 -86 5 0 9 23 9
51 0 49 -3 54 -47 95 -26 24 -48 44 -49 44 -2 0 -6 -15 -9 -34z"/>
<path d="M2862 3270 c0 -14 2 -19 5 -12 2 6 2 18 0 25 -3 6 -5 1 -5 -13z"/>
<path d="M2380 3190 c0 -45 3 -52 26 -60 42 -16 116 -15 159 3 22 9 66 16 99
17 41 0 69 6 92 21 19 11 34 21 34 22 0 1 -62 2 -138 3 -114 0 -147 4 -199 22
-34 12 -65 22 -68 22 -3 0 -5 -23 -5 -50z"/>
<path d="M2818 3194 c-51 -43 -55 -50 -31 -57 10 -2 26 -8 35 -12 20 -8 58 46
58 83 0 30 -11 28 -62 -14z"/>
<path d="M2608 3123 c6 -2 18 -2 25 0 6 3 1 5 -13 5 -14 0 -19 -2 -12 -5z"/>
<path d="M2690 3118 c-14 -6 -61 -16 -104 -22 -44 -6 -81 -17 -83 -23 -3 -8 7
-9 34 -2 21 5 81 8 133 7 64 -1 103 3 120 12 l25 13 -30 13 c-36 16 -62 16
-95 2z"/>
<path d="M2430 3090 c20 -13 50 -13 50 0 0 6 -15 10 -32 10 -25 0 -29 -3 -18
-10z"/>
<path d="M2807 3076 c-16 -12 -16 -14 -1 -20 17 -6 44 9 44 25 0 13 -22 10
-43 -5z"/>
<path d="M2587 3053 c18 -2 50 -2 70 0 21 2 7 4 -32 4 -38 0 -55 -2 -38 -4z"/>
<path d="M2710 3038 c-19 -6 -78 -8 -130 -5 -114 5 -88 -12 30 -20 83 -6 203
13 179 28 -17 11 -34 10 -79 -3z"/>
<path d="M2452 3008 c2 -7 22 -22 44 -33 59 -30 222 -28 282 3 57 30 53 42
-10 26 -68 -18 -167 -17 -243 1 -74 18 -78 18 -73 3z"/>
<path d="M2611 2770 c-35 -8 -69 -35 -58 -46 4 -4 29 -9 57 -12 l50 -5 0 37
c0 20 -3 36 -7 35 -5 -1 -23 -5 -42 -9z"/>
<path d="M2670 2749 c0 -27 3 -29 36 -29 23 0 33 -4 28 -11 -4 -8 0 -8 15 0
41 23 25 44 -46 61 -31 8 -33 7 -33 -21z"/>
<path d="M2614 2655 c-18 -14 -18 -14 9 -15 17 0 27 5 27 15 0 19 -11 19 -36
0z"/>
<path d="M2357 1713 c-15 -43 -27 -81 -27 -85 0 -5 25 -8 56 -8 63 0 60 -12
20 106 l-21 64 -28 -77z"/>
<path d="M2600 1674 l0 -126 56 4 c70 6 113 43 121 105 11 82 -45 143 -131
143 l-46 0 0 -126z"/>
<path d="M1830 1295 c0 -51 2 -55 23 -55 31 0 47 18 47 51 0 32 -23 59 -51 59
-16 0 -19 -7 -19 -55z"/>
<path d="M2591 1307 c-14 -37 -14 -37 9 -37 21 0 24 12 10 45 -7 19 -9 18 -19
-8z"/>
</g>
</svg>
